<svg width="317" height="109" viewBox="0 0 317 109" fill="none" xmlns="http://www.w3.org/2000/svg">
<g filter="url(#filter0_dd_2169_127374)">
<path d="M11 35C11 21.7452 21.7452 11 35 11H307V75C307 88.2548 296.255 99 283 99H11V35Z" fill="#FCFCFD"/>
<path d="M53.7832 62C53.3272 62 52.9072 61.886 52.5232 61.658C52.1512 61.43 51.8512 61.13 51.6232 60.758C51.3952 60.374 51.2812 59.954 51.2812 59.498V58.022H53.6572V59.39C53.6572 59.45 53.6752 59.504 53.7112 59.552C53.7592 59.588 53.8132 59.606 53.8732 59.606H61.6132C61.6732 59.606 61.7272 59.588 61.7752 59.552C61.8232 59.504 61.8472 59.45 61.8472 59.39V49.04H64.2412V59.498C64.2412 59.954 64.1272 60.374 63.8992 60.758C63.6712 61.13 63.3652 61.43 62.9812 61.658C62.6092 61.886 62.1952 62 61.7392 62H53.7832ZM69.6281 62C69.1721 62 68.7521 61.886 68.3681 61.658C67.9961 61.43 67.6961 61.13 67.4681 60.758C67.2401 60.374 67.1261 59.954 67.1261 59.498V51.542C67.1261 51.086 67.2401 50.672 67.4681 50.3C67.6961 49.916 67.9961 49.61 68.3681 49.382C68.7521 49.154 69.1721 49.04 69.6281 49.04H77.5841C78.0401 49.04 78.4541 49.154 78.8261 49.382C79.2101 49.61 79.5161 49.916 79.7441 50.3C79.9721 50.672 80.0861 51.086 80.0861 51.542V59.498C80.0861 59.954 79.9721 60.374 79.7441 60.758C79.5161 61.13 79.2101 61.43 78.8261 61.658C78.4541 61.886 78.0401 62 77.5841 62H69.6281ZM69.7181 59.606H77.4581C77.5181 59.606 77.5721 59.588 77.6201 59.552C77.6681 59.504 77.6921 59.45 77.6921 59.39V51.65C77.6921 51.59 77.6681 51.542 77.6201 51.506C77.5721 51.458 77.5181 51.434 77.4581 51.434H69.7181C69.6581 51.434 69.6041 51.458 69.5561 51.506C69.5201 51.542 69.5021 51.59 69.5021 51.65V59.39C69.5021 59.45 69.5201 59.504 69.5561 59.552C69.6041 59.588 69.6581 59.606 69.7181 59.606ZM82.7164 62V49.04H85.0744V62H82.7164ZM87.718 62V49.04H90.328L98.284 58.508V49.04H100.678V62H98.068L90.094 52.514V62H87.718ZM114.64 62V51.434H109.348V49.04H122.308V51.434H117.034V62H114.64ZM124.573 62V49.04H126.949V54.314H135.445V49.04H137.821V62H135.445V56.726H126.949V62H124.573ZM140.801 62V49.04H152.735V51.434H143.195V54.314H150.863V56.726H143.195V59.606H152.735V62H140.801ZM166.186 62L161.47 49.04H163.99L167.122 57.59L170.254 49.04H172.576L175.708 57.59L178.822 49.04H181.36L176.644 62H174.772L171.406 52.82L168.058 62H166.186ZM183.228 62V51.542C183.228 51.086 183.342 50.672 183.57 50.3C183.798 49.916 184.098 49.61 184.47 49.382C184.854 49.154 185.274 49.04 185.73 49.04H193.668C194.124 49.04 194.544 49.154 194.928 49.382C195.312 49.61 195.618 49.916 195.846 50.3C196.074 50.672 196.188 51.086 196.188 51.542V62H193.794V57.644H185.604V62H183.228ZM185.604 55.268H193.794V51.65C193.794 51.59 193.77 51.542 193.722 51.506C193.674 51.458 193.62 51.434 193.56 51.434H185.82C185.76 51.434 185.706 51.458 185.658 51.506C185.622 51.542 185.604 51.59 185.604 51.65V55.268ZM198.887 62V49.04H201.245V62H198.887ZM208.778 62V51.434H203.486V49.04H216.446V51.434H211.172V62H208.778ZM218.711 62V49.022H221.087V59.606H231.671V62H218.711ZM233.368 62V49.04H235.726V62H233.368ZM240.818 62C240.362 62 239.942 61.886 239.558 61.658C239.186 61.43 238.886 61.13 238.658 60.758C238.43 60.374 238.316 59.954 238.316 59.498V58.508H240.692V59.39C240.692 59.45 240.71 59.504 240.746 59.552C240.794 59.588 240.848 59.606 240.908 59.606H248.666C248.726 59.606 248.774 59.588 248.81 59.552C248.858 59.504 248.882 59.45 248.882 59.39V56.924C248.882 56.864 248.858 56.816 248.81 56.78C248.774 56.744 248.726 56.726 248.666 56.726H240.818C240.362 56.726 239.942 56.612 239.558 56.384C239.186 56.156 238.886 55.856 238.658 55.484C238.43 55.1 238.316 54.674 238.316 54.206V51.542C238.316 51.086 238.43 50.672 238.658 50.3C238.886 49.916 239.186 49.61 239.558 49.382C239.942 49.154 240.362 49.04 240.818 49.04H248.774C249.23 49.04 249.644 49.154 250.016 49.382C250.4 49.61 250.706 49.916 250.934 50.3C251.162 50.672 251.276 51.086 251.276 51.542V52.532H248.882V51.65C248.882 51.59 248.858 51.542 248.81 51.506C248.774 51.458 248.726 51.434 248.666 51.434H240.908C240.848 51.434 240.794 51.458 240.746 51.506C240.71 51.542 240.692 51.59 240.692 51.65V54.116C240.692 54.176 240.71 54.224 240.746 54.26C240.794 54.296 240.848 54.314 240.908 54.314H248.774C249.23 54.314 249.644 54.428 250.016 54.656C250.4 54.884 250.706 55.19 250.934 55.574C251.162 55.946 251.276 56.366 251.276 56.834V59.498C251.276 59.954 251.162 60.374 250.934 60.758C250.706 61.13 250.4 61.43 250.016 61.658C249.644 61.886 249.23 62 248.774 62H240.818ZM258.785 62V51.434H253.493V49.04H266.453V51.434H261.179V62H258.785Z" fill="#1C192C"/>
</g>
<defs>
<filter id="filter0_dd_2169_127374" x="0" y="0" width="317" height="109" filterUnits="userSpaceOnUse" color-interpolation-filters="sRGB">
<feFlood flood-opacity="0" result="BackgroundImageFix"/>
<feColorMatrix in="SourceAlpha" type="matrix" values="0 0 0 0 0 0 0 0 0 0 0 0 0 0 0 0 0 0 127 0" result="hardAlpha"/>
<feMorphology radius="1" operator="erode" in="SourceAlpha" result="effect1_dropShadow_2169_127374"/>
<feOffset dx="3" dy="3"/>
<feGaussianBlur stdDeviation="4"/>
<feColorMatrix type="matrix" values="0 0 0 0 0.900833 0 0 0 0 0.291667 0 0 0 0 1 0 0 0 1 0"/>
<feBlend mode="normal" in2="BackgroundImageFix" result="effect1_dropShadow_2169_127374"/>
<feColorMatrix in="SourceAlpha" type="matrix" values="0 0 0 0 0 0 0 0 0 0 0 0 0 0 0 0 0 0 127 0" result="hardAlpha"/>
<feOffset dx="-3" dy="-3"/>
<feGaussianBlur stdDeviation="4"/>
<feComposite in2="hardAlpha" operator="out"/>
<feColorMatrix type="matrix" values="0 0 0 0 0 0 0 0 0 0.882353 0 0 0 0 0.886275 0 0 0 1 0"/>
<feBlend mode="normal" in2="effect1_dropShadow_2169_127374" result="effect2_dropShadow_2169_127374"/>
<feBlend mode="normal" in="SourceGraphic" in2="effect2_dropShadow_2169_127374" result="shape"/>
</filter>
</defs>
</svg>
