<svg width="244" height="117" viewBox="0 0 244 117" fill="none" xmlns="http://www.w3.org/2000/svg">
<g filter="url(#filter0_dd_2165_168405)">
<path d="M11 35C11 21.7452 21.7452 11 35 11H234V83C234 96.2548 223.255 107 210 107H11V35Z" fill="#FCFCFD"/>
<path d="M74.0891 71C74.0891 71 73.1711 69.8274 72.4061 68.7912C75.7467 67.7822 77.0217 65.5461 77.0217 65.5461C75.9762 66.2824 74.9816 66.8005 74.0891 67.155C72.8141 67.7276 71.5901 68.1094 70.3916 68.3276C67.9435 68.8184 65.6995 68.6821 63.787 68.3003C62.3334 68.0003 61.0839 67.564 60.0384 67.1278C59.4519 66.8823 58.8144 66.5824 58.1769 66.2006C58.1004 66.146 58.0239 66.1188 57.9473 66.0642C57.8964 66.037 57.8708 66.0097 57.8454 65.9824C57.3864 65.7097 57.1314 65.5188 57.1314 65.5188C57.1314 65.5188 58.3554 67.7004 61.5939 68.7366C60.8289 69.7729 59.8854 71 59.8854 71C54.2498 70.8092 51 66.8551 51 66.8551C51 58.0742 53.6444 48.5302 53.6444 48.5302C57.3165 45.5851 61.9178 45.6669 61.9178 45.6669L63.2005 48.4209C58.6104 49.8389 56.4938 51.9931 56.4938 51.9931C56.4938 51.9931 57.0548 51.6659 57.9983 51.2023C60.7269 49.9207 62.8944 49.5662 63.787 49.4843C63.9399 49.4571 64.0674 49.4298 64.2205 49.4298C65.776 49.2116 67.5355 49.1571 69.3715 49.3753C71.7941 49.6752 74.3951 50.4388 77.0472 51.9931C77.0472 51.9931 75.0327 49.9479 70.6976 48.5299L71.5391 45.6669C71.5391 45.6669 76.1404 45.5851 79.8124 48.5302C79.8124 48.5302 83 58.0742 83 66.8551C83 66.8551 79.7247 70.8092 74.0891 71ZM62.2314 58.2651C60.7779 58.2651 59.6304 59.6286 59.6304 61.292C59.6304 62.9555 60.8034 64.319 62.2314 64.319C63.6849 64.319 64.8325 62.9555 64.8325 61.292C64.858 59.6286 63.6849 58.2651 62.2314 58.2651ZM71.5391 58.2651C70.0855 58.2651 68.938 59.6286 68.938 61.292C68.938 62.9555 70.1111 64.319 71.5391 64.319C72.9926 64.319 74.1401 62.9555 74.1401 61.292C74.1401 59.6286 72.9926 58.2651 71.5391 58.2651Z" fill="#16151E"/>
<path d="M96.1917 66V53.04H106.632C107.088 53.04 107.508 53.154 107.892 53.382C108.276 53.61 108.582 53.916 108.81 54.3C109.038 54.672 109.152 55.086 109.152 55.542V63.498C109.152 63.954 109.038 64.374 108.81 64.758C108.582 65.13 108.276 65.43 107.892 65.658C107.508 65.886 107.088 66 106.632 66H96.1917ZM98.7657 63.606H106.524C106.584 63.606 106.638 63.588 106.686 63.552C106.734 63.504 106.758 63.45 106.758 63.39V55.65C106.758 55.59 106.734 55.542 106.686 55.506C106.638 55.458 106.584 55.434 106.524 55.434H98.7657C98.7057 55.434 98.6517 55.458 98.6037 55.506C98.5677 55.542 98.5497 55.59 98.5497 55.65V63.39C98.5497 63.45 98.5677 63.504 98.6037 63.552C98.6517 63.588 98.7057 63.606 98.7657 63.606ZM111.815 66V53.04H114.173V66H111.815ZM119.265 66C118.809 66 118.389 65.886 118.005 65.658C117.633 65.43 117.333 65.13 117.105 64.758C116.877 64.374 116.763 63.954 116.763 63.498V62.508H119.139V63.39C119.139 63.45 119.157 63.504 119.193 63.552C119.241 63.588 119.295 63.606 119.355 63.606H127.113C127.173 63.606 127.221 63.588 127.257 63.552C127.305 63.504 127.329 63.45 127.329 63.39V60.924C127.329 60.864 127.305 60.816 127.257 60.78C127.221 60.744 127.173 60.726 127.113 60.726H119.265C118.809 60.726 118.389 60.612 118.005 60.384C117.633 60.156 117.333 59.856 117.105 59.484C116.877 59.1 116.763 58.674 116.763 58.206V55.542C116.763 55.086 116.877 54.672 117.105 54.3C117.333 53.916 117.633 53.61 118.005 53.382C118.389 53.154 118.809 53.04 119.265 53.04H127.221C127.677 53.04 128.091 53.154 128.463 53.382C128.847 53.61 129.153 53.916 129.381 54.3C129.609 54.672 129.723 55.086 129.723 55.542V56.532H127.329V55.65C127.329 55.59 127.305 55.542 127.257 55.506C127.221 55.458 127.173 55.434 127.113 55.434H119.355C119.295 55.434 119.241 55.458 119.193 55.506C119.157 55.542 119.139 55.59 119.139 55.65V58.116C119.139 58.176 119.157 58.224 119.193 58.26C119.241 58.296 119.295 58.314 119.355 58.314H127.221C127.677 58.314 128.091 58.428 128.463 58.656C128.847 58.884 129.153 59.19 129.381 59.574C129.609 59.946 129.723 60.366 129.723 60.834V63.498C129.723 63.954 129.609 64.374 129.381 64.758C129.153 65.13 128.847 65.43 128.463 65.658C128.091 65.886 127.677 66 127.221 66H119.265ZM135.09 66C134.634 66 134.214 65.886 133.83 65.658C133.458 65.43 133.158 65.13 132.93 64.758C132.702 64.374 132.588 63.954 132.588 63.498V55.542C132.588 55.086 132.702 54.672 132.93 54.3C133.158 53.916 133.458 53.61 133.83 53.382C134.214 53.154 134.634 53.04 135.09 53.04H145.512V55.434H135.594C135.402 55.434 135.246 55.488 135.126 55.596C135.018 55.704 134.964 55.86 134.964 56.064V62.976C134.964 63.168 135.018 63.324 135.126 63.444C135.246 63.552 135.402 63.606 135.594 63.606H145.512V66H135.09ZM150.755 66C150.299 66 149.879 65.886 149.495 65.658C149.123 65.43 148.823 65.13 148.595 64.758C148.367 64.374 148.253 63.954 148.253 63.498V55.542C148.253 55.086 148.367 54.672 148.595 54.3C148.823 53.916 149.123 53.61 149.495 53.382C149.879 53.154 150.299 53.04 150.755 53.04H158.711C159.167 53.04 159.581 53.154 159.953 53.382C160.337 53.61 160.643 53.916 160.871 54.3C161.099 54.672 161.213 55.086 161.213 55.542V63.498C161.213 63.954 161.099 64.374 160.871 64.758C160.643 65.13 160.337 65.43 159.953 65.658C159.581 65.886 159.167 66 158.711 66H150.755ZM150.845 63.606H158.585C158.645 63.606 158.699 63.588 158.747 63.552C158.795 63.504 158.819 63.45 158.819 63.39V55.65C158.819 55.59 158.795 55.542 158.747 55.506C158.699 55.458 158.645 55.434 158.585 55.434H150.845C150.785 55.434 150.731 55.458 150.683 55.506C150.647 55.542 150.629 55.59 150.629 55.65V63.39C150.629 63.45 150.647 63.504 150.683 63.552C150.731 63.588 150.785 63.606 150.845 63.606ZM174.427 66L170.521 61.338H173.635L177.019 65.334V66H174.427ZM164.095 66V53.058H174.535C174.991 53.058 175.411 53.172 175.795 53.4C176.179 53.628 176.485 53.934 176.713 54.318C176.941 54.69 177.055 55.104 177.055 55.56V59.052C177.055 59.508 176.941 59.928 176.713 60.312C176.485 60.696 176.179 61.002 175.795 61.23C175.411 61.446 174.991 61.554 174.535 61.554L166.471 61.572V66H164.095ZM166.687 59.16H174.427C174.487 59.16 174.541 59.142 174.589 59.106C174.637 59.07 174.661 59.022 174.661 58.962V55.65C174.661 55.59 174.637 55.542 174.589 55.506C174.541 55.458 174.487 55.434 174.427 55.434H166.687C166.627 55.434 166.573 55.458 166.525 55.506C166.489 55.542 166.471 55.59 166.471 55.65V58.962C166.471 59.022 166.489 59.07 166.525 59.106C166.573 59.142 166.627 59.16 166.687 59.16ZM179.885 66V53.04H190.325C190.781 53.04 191.201 53.154 191.585 53.382C191.969 53.61 192.275 53.916 192.503 54.3C192.731 54.672 192.845 55.086 192.845 55.542V63.498C192.845 63.954 192.731 64.374 192.503 64.758C192.275 65.13 191.969 65.43 191.585 65.658C191.201 65.886 190.781 66 190.325 66H179.885ZM182.459 63.606H190.217C190.277 63.606 190.331 63.588 190.379 63.552C190.427 63.504 190.451 63.45 190.451 63.39V55.65C190.451 55.59 190.427 55.542 190.379 55.506C190.331 55.458 190.277 55.434 190.217 55.434H182.459C182.399 55.434 182.345 55.458 182.297 55.506C182.261 55.542 182.243 55.59 182.243 55.65V63.39C182.243 63.45 182.261 63.504 182.297 63.552C182.345 63.588 182.399 63.606 182.459 63.606Z" fill="#1C192C"/>
</g>
<defs>
<filter id="filter0_dd_2165_168405" x="0" y="0" width="244" height="117" filterUnits="userSpaceOnUse" color-interpolation-filters="sRGB">
<feFlood flood-opacity="0" result="BackgroundImageFix"/>
<feColorMatrix in="SourceAlpha" type="matrix" values="0 0 0 0 0 0 0 0 0 0 0 0 0 0 0 0 0 0 127 0" result="hardAlpha"/>
<feMorphology radius="1" operator="erode" in="SourceAlpha" result="effect1_dropShadow_2165_168405"/>
<feOffset dx="3" dy="3"/>
<feGaussianBlur stdDeviation="4"/>
<feColorMatrix type="matrix" values="0 0 0 0 0.900833 0 0 0 0 0.291667 0 0 0 0 1 0 0 0 1 0"/>
<feBlend mode="normal" in2="BackgroundImageFix" result="effect1_dropShadow_2165_168405"/>
<feColorMatrix in="SourceAlpha" type="matrix" values="0 0 0 0 0 0 0 0 0 0 0 0 0 0 0 0 0 0 127 0" result="hardAlpha"/>
<feOffset dx="-3" dy="-3"/>
<feGaussianBlur stdDeviation="4"/>
<feComposite in2="hardAlpha" operator="out"/>
<feColorMatrix type="matrix" values="0 0 0 0 0 0 0 0 0 0.882353 0 0 0 0 0.886275 0 0 0 1 0"/>
<feBlend mode="normal" in2="effect1_dropShadow_2165_168405" result="effect2_dropShadow_2165_168405"/>
<feBlend mode="normal" in="SourceGraphic" in2="effect2_dropShadow_2165_168405" result="shape"/>
</filter>
</defs>
</svg>
