<svg width="246" height="117" viewBox="0 0 246 117" fill="none" xmlns="http://www.w3.org/2000/svg">
<g filter="url(#filter0_dd_2165_168396)">
<path d="M11 35C11 21.7452 21.7452 11 35 11H236V83C236 96.2548 225.255 107 212 107H11V35Z" fill="#FCFCFD"/>
<path d="M79 53C79.6667 63 72.3333 71 63 71C59.7841 71 56.5682 70.5691 54.0453 69.3608C53.4674 69.0841 53.6933 68.3133 54.3326 68.2709C57.4393 68.0649 60.0103 67.3231 61.6667 65.6667C54.4448 63.2593 53.1991 54.3327 54.4964 49.6763C54.6487 49.1295 55.3596 49.1267 55.6461 49.6166C57.8614 53.4049 62.0736 55.52 67.3528 55.0319C67.1244 54.3974 67 53.7132 67 53C67 49.6863 69.6863 47 73 47C75.0243 47 76.8144 48.0024 77.9011 49.5379L80.1905 49.2109C80.7611 49.1294 81.1592 49.7612 80.8396 50.2406L79 53Z" fill="#1C192C"/>
<path d="M100.991 66V55.434H95.6991V53.04H108.659V55.434H103.385V66H100.991ZM115.243 66L110.527 53.04H113.047L116.179 61.59L119.311 53.04H121.633L124.765 61.59L127.879 53.04H130.417L125.701 66H123.829L120.463 56.82L117.115 66H115.243ZM132.77 66V53.04H135.128V66H132.77ZM142.662 66V55.434H137.37V53.04H150.33V55.434H145.056V66H142.662ZM157.22 66V55.434H151.928V53.04H164.888V55.434H159.614V66H157.22ZM167.17 66V53.04H179.104V55.434H169.564V58.314H177.232V60.726H169.564V63.606H179.104V66H167.17ZM192.147 66L188.241 61.338H191.355L194.739 65.334V66H192.147ZM181.815 66V53.058H192.255C192.711 53.058 193.131 53.172 193.515 53.4C193.899 53.628 194.205 53.934 194.433 54.318C194.661 54.69 194.775 55.104 194.775 55.56V59.052C194.775 59.508 194.661 59.928 194.433 60.312C194.205 60.696 193.899 61.002 193.515 61.23C193.131 61.446 192.711 61.554 192.255 61.554L184.191 61.572V66H181.815ZM184.407 59.16H192.147C192.207 59.16 192.261 59.142 192.309 59.106C192.357 59.07 192.381 59.022 192.381 58.962V55.65C192.381 55.59 192.357 55.542 192.309 55.506C192.261 55.458 192.207 55.434 192.147 55.434H184.407C184.347 55.434 184.293 55.458 184.245 55.506C184.209 55.542 184.191 55.59 184.191 55.65V58.962C184.191 59.022 184.209 59.07 184.245 59.106C184.293 59.142 184.347 59.16 184.407 59.16Z" fill="#1C192C"/>
</g>
<defs>
<filter id="filter0_dd_2165_168396" x="0" y="0" width="246" height="117" filterUnits="userSpaceOnUse" color-interpolation-filters="sRGB">
<feFlood flood-opacity="0" result="BackgroundImageFix"/>
<feColorMatrix in="SourceAlpha" type="matrix" values="0 0 0 0 0 0 0 0 0 0 0 0 0 0 0 0 0 0 127 0" result="hardAlpha"/>
<feMorphology radius="1" operator="erode" in="SourceAlpha" result="effect1_dropShadow_2165_168396"/>
<feOffset dx="3" dy="3"/>
<feGaussianBlur stdDeviation="4"/>
<feColorMatrix type="matrix" values="0 0 0 0 0.900833 0 0 0 0 0.291667 0 0 0 0 1 0 0 0 1 0"/>
<feBlend mode="normal" in2="BackgroundImageFix" result="effect1_dropShadow_2165_168396"/>
<feColorMatrix in="SourceAlpha" type="matrix" values="0 0 0 0 0 0 0 0 0 0 0 0 0 0 0 0 0 0 127 0" result="hardAlpha"/>
<feOffset dx="-3" dy="-3"/>
<feGaussianBlur stdDeviation="4"/>
<feComposite in2="hardAlpha" operator="out"/>
<feColorMatrix type="matrix" values="0 0 0 0 0 0 0 0 0 0.882353 0 0 0 0 0.886275 0 0 0 1 0"/>
<feBlend mode="normal" in2="effect1_dropShadow_2165_168396" result="effect2_dropShadow_2165_168396"/>
<feBlend mode="normal" in="SourceGraphic" in2="effect2_dropShadow_2165_168396" result="shape"/>
</filter>
</defs>
</svg>
