<svg width="271" height="55" viewBox="0 0 271 55" fill="none" xmlns="http://www.w3.org/2000/svg">
<g style="mix-blend-mode:hard-light" opacity="0.9" filter="url(#filter0_f_2449_60602)">
<path d="M158.617 20.6096V21.4462H159.454V20.6096H158.617ZM158.617 16.8414H159.454V16.0049H158.617V16.8414ZM119.668 36.0022L118.885 36.2971L118.885 36.2985L119.668 36.0022ZM112.451 16.8419V16.0054H111.242L111.668 17.1368L112.451 16.8419ZM128.705 36.0022L129.483 36.3108L129.483 36.3107L128.705 36.0022ZM136.305 16.8419L137.083 17.1504L137.537 16.0054H136.305V16.8419ZM132.122 16.8419V16.0054H131.553L131.344 16.534L132.122 16.8419ZM125.256 34.182L126.023 34.5173L126.028 34.5037L126.034 34.49L125.256 34.182ZM123.149 34.182L123.932 33.8883L123.931 33.8865L123.149 34.182ZM116.602 16.8419L117.385 16.5465L117.18 16.0054H116.602V16.8419ZM166.281 20.6101L165.547 21.0122L165.785 21.4467H166.281V20.6101ZM164.215 16.8419V16.0054H162.803L163.482 17.244L164.215 16.8419ZM174.414 26.473L174.429 27.3094L174.414 26.473ZM171.781 26.5V25.6635H170.284L171.068 26.9382L171.781 26.5ZM179.097 38.3972L178.384 38.8354L178.629 39.2338H179.097V38.3972ZM183.28 38.3972V39.2338H184.734L184.003 37.9767L183.28 38.3972ZM178.266 29.7751L178.04 28.9699L177.001 29.2624L177.543 30.1956L178.266 29.7751ZM187.32 16.8419V16.0054H186.483V16.8419H187.32ZM187.32 20.6101H186.483V21.4467H187.32V20.6101ZM203.255 26.6137L203.583 27.3831L203.585 27.382L203.255 26.6137ZM191.503 31.6273L191.175 30.8578L191.173 30.8584L191.503 31.6273ZM206.224 34.6291H207.061V33.7925H206.224V34.6291ZM206.224 38.3972V39.2338H207.061V38.3972H206.224ZM190.034 28.6255L190.361 29.3955L190.364 29.3943L190.034 28.6255ZM201.722 23.6119L201.405 22.8375L201.392 22.8431L201.722 23.6119ZM212.042 16.8419V16.0054H211.205V16.8419H212.042ZM230.531 16.8419H231.368V16.0054H230.531V16.8419ZM226.827 16.8419V16.0054H225.99V16.8419H226.827ZM215.874 16.8419H216.71V16.0054H215.874V16.8419ZM252.867 16.8419H253.703V16.0054H252.867V16.8419ZM252.867 20.6101V21.4467H253.703V20.6101H252.867ZM235.622 38.3972H234.786V39.2338H235.622V38.3972ZM235.622 34.6291V33.7925H234.786V34.6291H235.622ZM158.617 34.6297H159.454V33.7931H158.617V34.6297ZM158.617 38.3978V39.2344H159.454V38.3978H158.617ZM158.617 29.5032V30.3398H159.454V29.5032H158.617ZM158.617 25.7351H159.454V24.8985H158.617V25.7351ZM147.523 19.7731H142.49V21.4462H147.523V19.7731ZM151.701 19.7731H147.523V21.4462H151.701V19.7731ZM158.617 19.7731H151.701V21.4462H158.617V19.7731ZM157.781 16.8414V20.6096H159.454V16.8414H157.781ZM142.49 17.678H158.617V16.0049H142.49V17.678ZM141.443 18.7255C141.443 18.147 141.912 17.678 142.49 17.678V16.0049C140.988 16.0049 139.77 17.223 139.77 18.7255H141.443ZM142.49 19.7731C141.912 19.7731 141.443 19.3041 141.443 18.7255H139.77C139.77 20.2281 140.988 21.4462 142.49 21.4462V19.7731ZM120.451 35.7073L113.234 16.547L111.668 17.1368L118.885 36.2971L120.451 35.7073ZM124.202 37.9439C123.228 37.9439 122.452 37.7873 121.853 37.4517C121.273 37.1274 120.788 36.5974 120.45 35.7059L118.885 36.2985C119.346 37.5147 120.074 38.3737 121.036 38.9117C121.977 39.4383 123.069 39.617 124.202 39.617V37.9439ZM127.927 35.6937C127.583 36.5617 127.124 37.0949 126.566 37.4264C125.993 37.7664 125.232 37.9439 124.202 37.9439V39.617C125.408 39.617 126.499 39.4113 127.42 38.8651C128.354 38.3105 129.029 37.4545 129.483 36.3108L127.927 35.6937ZM135.528 16.5335L127.927 35.6938L129.483 36.3107L137.083 17.1504L135.528 16.5335ZM132.122 17.6785H136.305V16.0054H132.122V17.6785ZM126.034 34.49L132.9 17.1499L131.344 16.534L124.478 33.874L126.034 34.49ZM124.202 35.753C124.584 35.753 124.971 35.6675 125.316 35.4269C125.653 35.1914 125.872 34.8621 126.023 34.5173L124.49 33.8467C124.417 34.0128 124.364 34.0508 124.358 34.0547C124.355 34.0573 124.348 34.0619 124.329 34.0669C124.309 34.0725 124.27 34.0799 124.202 34.0799V35.753ZM122.365 34.4757C122.507 34.8532 122.735 35.1938 123.084 35.432C123.432 35.6693 123.824 35.753 124.202 35.753V34.0799C124.069 34.0799 124.03 34.0519 124.027 34.0496C124.025 34.0484 123.982 34.0218 123.932 33.8883L122.365 34.4757ZM115.819 17.1374L122.366 34.4775L123.931 33.8865L117.385 16.5465L115.819 17.1374ZM112.451 17.6785H116.602V16.0054H112.451V17.6785ZM167.014 20.208L164.949 16.4399L163.482 17.244L165.547 21.0122L167.014 20.208ZM176.031 19.7736H166.281V21.4467H176.031V19.7736ZM179.869 23.4522C179.869 22.5223 179.587 21.5888 178.918 20.8814C178.239 20.1643 177.252 19.7736 176.031 19.7736V21.4467C176.886 21.4467 177.399 21.7106 177.703 22.0313C178.015 22.3618 178.196 22.8493 178.196 23.4522H179.869ZM176.031 27.2905C177.308 27.2905 178.303 26.8432 178.967 26.0749C179.613 25.3272 179.869 24.3647 179.869 23.4522H178.196C178.196 24.0726 178.021 24.6109 177.701 24.9809C177.399 25.3303 176.894 25.6175 176.031 25.6175V27.2905ZM174.429 27.3094C174.992 27.2994 175.488 27.2905 176.031 27.2905V25.6175C175.47 25.6175 174.96 25.6266 174.399 25.6366L174.429 27.3094ZM171.781 27.3366C172.906 27.3366 173.717 27.3221 174.429 27.3094L174.399 25.6366C173.689 25.6492 172.89 25.6635 171.781 25.6635V27.3366ZM179.809 37.9591L172.493 26.0618L171.068 26.9382L178.384 38.8354L179.809 37.9591ZM183.28 37.5607H179.097V39.2338H183.28V37.5607ZM177.543 30.1956L182.557 38.8178L184.003 37.9767L178.99 29.3546L177.543 30.1956ZM181.996 23.2926C181.996 25.7333 180.854 28.1774 178.04 28.9699L178.493 30.5804C182.257 29.5207 183.669 26.2166 183.669 23.2926H181.996ZM175.903 17.6785C178.152 17.6785 179.646 18.3684 180.583 19.3509C181.528 20.3428 181.996 21.7307 181.996 23.2926H183.669C183.669 21.4055 183.1 19.5681 181.794 18.1969C180.479 16.8164 178.509 16.0054 175.903 16.0054V17.6785ZM164.215 17.6785H175.903V16.0054H164.215V17.6785ZM186.483 16.8419V20.6101H188.156V16.8419H186.483ZM201.466 16.0054H187.32V17.6785H201.466V16.0054ZM207.54 21.5681C207.54 19.8991 207.038 18.4677 205.944 17.4632C204.861 16.4689 203.32 16.0054 201.466 16.0054V17.6785C203.061 17.6785 204.139 18.0772 204.812 18.6956C205.475 19.3037 205.867 20.2353 205.867 21.5681H207.54ZM203.585 27.382C204.838 26.8429 205.842 26.1097 206.529 25.1179C207.219 24.1215 207.54 22.9328 207.54 21.5681H205.867C205.867 22.6624 205.613 23.5014 205.153 24.1656C204.69 24.8343 203.971 25.3945 202.924 25.8453L203.585 27.382ZM191.831 32.3967L203.583 27.3831L202.926 25.8442L191.175 30.8578L191.831 32.3967ZM191.254 33.224C191.254 32.8528 191.442 32.5634 191.832 32.3962L191.173 30.8584C190.222 31.2659 189.581 32.1262 189.581 33.224H191.254ZM192.014 33.7925C191.635 33.7925 191.461 33.6907 191.388 33.6239C191.323 33.5633 191.254 33.4518 191.254 33.224H189.581C189.581 33.8265 189.783 34.4174 190.252 34.8519C190.715 35.28 191.339 35.4656 192.014 35.4656V33.7925ZM206.224 33.7925H192.014V35.4656H206.224V33.7925ZM207.061 38.3972V34.6291H205.388V38.3972H207.061ZM191.758 39.2338H206.224V37.5607H191.758V39.2338ZM185.717 33.671C185.717 35.3357 186.208 36.7672 187.294 37.7734C188.37 38.7702 189.905 39.2338 191.758 39.2338V37.5607C190.163 37.5607 189.096 37.1621 188.431 36.5462C187.777 35.9397 187.39 35.0081 187.39 33.671H185.717ZM189.707 27.8555C188.439 28.3939 187.425 29.1264 186.733 30.119C186.038 31.1164 185.717 32.3064 185.717 33.671H187.39C187.39 32.5768 187.643 31.7389 188.106 31.0758C188.571 30.4078 189.298 29.847 190.361 29.3955L189.707 27.8555ZM201.392 22.8431L189.704 27.8567L190.364 29.3943L202.052 24.3807L201.392 22.8431ZM202.003 22.0152C202.003 22.3791 201.823 22.6667 201.405 22.8376L202.038 24.3862C203.026 23.9823 203.676 23.1203 203.676 22.0152H202.003ZM201.211 21.4467C201.612 21.4467 201.794 21.5518 201.869 21.6195C201.934 21.6791 202.003 21.788 202.003 22.0152H203.676C203.676 21.4121 203.473 20.8185 202.996 20.3831C202.527 19.9559 201.895 19.7736 201.211 19.7736V21.4467ZM187.32 21.4467H201.211V19.7736H187.32V21.4467ZM212.878 31.5315V16.8419H211.205V31.5315H212.878ZM219.003 37.5607C216.836 37.5607 215.341 37.0121 214.385 36.0692C213.432 35.1284 212.878 33.661 212.878 31.5315H211.205C211.205 33.9366 211.833 35.902 213.211 37.2604C214.586 38.6168 216.572 39.2338 219.003 39.2338V37.5607ZM223.538 37.5607H219.003V39.2338H223.538V37.5607ZM229.695 31.5315C229.695 33.658 229.135 35.1254 228.174 36.0672C227.209 37.012 225.705 37.5607 223.538 37.5607V39.2338C225.969 39.2338 227.962 38.6169 229.344 37.2624C230.73 35.905 231.368 33.9395 231.368 31.5315H229.695ZM229.695 16.8419V31.5315H231.368V16.8419H229.695ZM226.827 17.6785H230.531V16.0054H226.827V17.6785ZM227.664 31.2441V16.8419H225.99V31.2441H227.664ZM223.282 35.4656C224.63 35.4656 225.763 35.1186 226.554 34.3325C227.347 33.5455 227.664 32.4519 227.664 31.2441H225.99C225.99 32.1758 225.748 32.7747 225.375 33.1453C225.001 33.5168 224.361 33.7925 223.282 33.7925V35.4656ZM219.45 35.4656H223.282V33.7925H219.45V35.4656ZM215.037 31.2441C215.037 32.4459 215.343 33.5425 216.138 34.3325C216.933 35.1215 218.076 35.4656 219.45 35.4656V33.7925C218.334 33.7925 217.689 33.5139 217.317 33.1453C216.947 32.7777 216.71 32.1818 216.71 31.2441H215.037ZM215.037 16.8419V31.2441H216.71V16.8419H215.037ZM212.042 17.6785H215.874V16.0054H212.042V17.6785ZM241.945 16.0054C239.401 16.0054 237.479 16.7035 236.198 18.0133C234.921 19.3188 234.402 21.1069 234.402 23.0371H236.076C236.076 21.3907 236.515 20.0812 237.394 19.1833C238.268 18.2896 239.699 17.6785 241.945 17.6785V16.0054ZM252.867 16.0054H241.945V17.6785H252.867V16.0054ZM253.703 20.6101V16.8419H252.03V20.6101H253.703ZM241.817 21.4467H252.867V19.7736H241.817V21.4467ZM239.844 23.1648C239.844 22.5716 240.011 22.1735 240.268 21.9213C240.526 21.6684 240.99 21.4467 241.817 21.4467V19.7736C240.697 19.7736 239.756 20.0788 239.096 20.7279C238.434 21.3779 238.171 22.2572 238.171 23.1648H239.844ZM242.201 24.883C241.066 24.883 240.515 24.603 240.244 24.3367C239.976 24.0727 239.844 23.6857 239.844 23.1648H238.171C238.171 23.9533 238.374 24.8435 239.071 25.5296C239.766 26.2133 240.813 26.5561 242.201 26.5561V24.883ZM247.246 24.883H242.201V26.5561H247.246V24.883ZM255.332 32.0744C255.332 30.4195 254.967 28.5928 253.697 27.1768C252.411 25.7435 250.337 24.883 247.246 24.883V26.5561C250.032 26.5561 251.581 27.3241 252.451 28.2939C253.337 29.281 253.659 30.6316 253.659 32.0744H255.332ZM247.629 39.2338C250.237 39.2338 252.199 38.5199 253.504 37.1861C254.806 35.8565 255.332 34.0362 255.332 32.0744H253.659C253.659 33.753 253.211 35.0941 252.309 36.0158C251.411 36.9333 249.94 37.5607 247.629 37.5607V39.2338ZM235.622 39.2338H247.629V37.5607H235.622V39.2338ZM234.786 34.6291V38.3972H236.459V34.6291H234.786ZM247.757 33.7925H235.622V35.4656H247.757V33.7925ZM249.89 31.9466C249.89 32.5655 249.71 32.9968 249.424 33.2758C249.137 33.556 248.63 33.7925 247.757 33.7925V35.4656C248.928 35.4656 249.906 35.1432 250.593 34.4735C251.281 33.8025 251.564 32.8925 251.564 31.9466H249.89ZM247.342 30.1007C248.546 30.1007 249.147 30.3912 249.449 30.6816C249.745 30.9662 249.89 31.3825 249.89 31.9466H251.564C251.564 31.1056 251.342 30.1807 250.608 29.4754C249.88 28.7758 248.789 28.4276 247.342 28.4276V30.1007ZM242.328 30.1007H247.342V28.4276H242.328V30.1007ZM234.402 23.0371C234.402 24.6451 234.76 26.4381 236.004 27.8331C237.264 29.2463 239.299 30.1007 242.328 30.1007V28.4276C239.61 28.4276 238.1 27.6694 237.252 26.7195C236.389 25.7514 236.076 24.4308 236.076 23.0371H234.402ZM142.49 39.2344H147.523V37.5613H142.49V39.2344ZM139.77 36.5138C139.77 38.0163 140.988 39.2344 142.49 39.2344V37.5613C141.912 37.5613 141.443 37.0923 141.443 36.5138H139.77ZM142.49 33.7931C140.988 33.7931 139.77 35.0112 139.77 36.5138H141.443C141.443 35.9352 141.912 35.4662 142.49 35.4662V33.7931ZM158.617 33.7931H142.49V35.4662H158.617V33.7931ZM159.454 38.3978V34.6297H157.781V38.3978H159.454ZM151.701 39.2344H158.617V37.5613H151.701V39.2344ZM147.523 39.2344H151.701V37.5613H147.523V39.2344ZM147.523 28.6667H142.49V30.3398H147.523V28.6667ZM151.701 28.6667H147.523V30.3398H151.701V28.6667ZM158.617 28.6667H151.701V30.3398H158.617V28.6667ZM157.781 25.7351V29.5032H159.454V25.7351H157.781ZM142.49 26.5716H158.617V24.8985H142.49V26.5716ZM141.443 27.6191C141.443 27.0406 141.912 26.5716 142.49 26.5716V24.8985C140.988 24.8985 139.77 26.1166 139.77 27.6191H141.443ZM142.49 28.6667C141.912 28.6667 141.443 28.1977 141.443 27.6191H139.77C139.77 29.1217 140.988 30.3398 142.49 30.3398V28.6667Z" fill="#FF26C2"/>
</g>
<path d="M158.617 20.6096V21.1808H159.188V20.6096H158.617ZM158.617 16.8414H159.188V16.2703H158.617V16.8414ZM119.668 36.0022L119.133 36.2035L119.134 36.2045L119.668 36.0022ZM112.451 16.8419V16.2708H111.625L111.916 17.0433L112.451 16.8419ZM128.705 36.0022L129.236 36.2129L129.236 36.2128L128.705 36.0022ZM136.305 16.8419L136.836 17.0525L137.146 16.2708H136.305V16.8419ZM132.122 16.8419V16.2708H131.734L131.591 16.6317L132.122 16.8419ZM125.256 34.182L125.779 34.4109L125.783 34.4017L125.787 34.3923L125.256 34.182ZM123.149 34.182L123.683 33.9814L123.683 33.9802L123.149 34.182ZM116.602 16.8419L117.136 16.6402L116.997 16.2708H116.602V16.8419ZM166.281 20.6101L165.78 20.8846L165.942 21.1813H166.281V20.6101ZM164.215 16.8419V16.2708H163.251L163.715 17.1164L164.215 16.8419ZM174.414 26.473L174.424 27.0441L174.414 26.473ZM171.781 26.5V25.9288H170.759L171.294 26.7992L171.781 26.5ZM179.097 38.3972L178.61 38.6964L178.777 38.9684H179.097V38.3972ZM183.28 38.3972V38.9684H184.273L183.774 38.1101L183.28 38.3972ZM178.266 29.7751L178.112 29.2253L177.402 29.4251L177.773 30.0622L178.266 29.7751ZM187.32 16.8419V16.2708H186.748V16.8419H187.32ZM187.32 20.6101H186.748V21.1813H187.32V20.6101ZM203.255 26.6137L203.479 27.139L203.48 27.1383L203.255 26.6137ZM191.503 31.6273L191.279 31.1019L191.278 31.1023L191.503 31.6273ZM206.224 34.6291H206.796V34.0579H206.224V34.6291ZM206.224 38.3972V38.9684H206.796V38.3972H206.224ZM190.034 28.6255L190.257 29.1512L190.259 29.1504L190.034 28.6255ZM201.722 23.6119L201.505 23.0832L201.497 23.087L201.722 23.6119ZM212.042 16.8419V16.2708H211.47V16.8419H212.042ZM230.531 16.8419H231.102V16.2708H230.531V16.8419ZM226.827 16.8419V16.2708H226.256V16.8419H226.827ZM215.874 16.8419H216.445V16.2708H215.874V16.8419ZM252.867 16.8419H253.438V16.2708H252.867V16.8419ZM252.867 20.6101V21.1813H253.438V20.6101H252.867ZM235.622 38.3972H235.051V38.9684H235.622V38.3972ZM235.622 34.6291V34.0579H235.051V34.6291H235.622ZM158.617 34.6297H159.188V34.0585H158.617V34.6297ZM158.617 38.3978V38.969H159.188V38.3978H158.617ZM158.617 29.5032V30.0744H159.188V29.5032H158.617ZM158.617 25.7351H159.188V25.1639H158.617V25.7351ZM147.523 20.0385H142.49V21.1808H147.523V20.0385ZM151.701 20.0385H147.523V21.1808H151.701V20.0385ZM158.617 20.0385H151.701V21.1808H158.617V20.0385ZM158.046 16.8414V20.6096H159.188V16.8414H158.046ZM142.49 17.4126H158.617V16.2703H142.49V17.4126ZM141.178 18.7255C141.178 18.0004 141.765 17.4126 142.49 17.4126V16.2703C141.134 16.2703 140.035 17.3695 140.035 18.7255H141.178ZM142.49 20.0385C141.765 20.0385 141.178 19.4506 141.178 18.7255H140.035C140.035 20.0815 141.134 21.1808 142.49 21.1808V20.0385ZM120.202 35.8009L112.985 16.6406L111.916 17.0433L119.133 36.2035L120.202 35.8009ZM124.202 38.2093C123.203 38.2093 122.377 38.0492 121.723 37.6833C121.083 37.3251 120.559 36.7429 120.202 35.7999L119.134 36.2045C119.575 37.3692 120.264 38.1761 121.165 38.6801C122.052 39.1764 123.094 39.3516 124.202 39.3516V38.2093ZM128.174 35.7915C127.812 36.7033 127.319 37.2877 126.701 37.6546C126.073 38.0273 125.26 38.2093 124.202 38.2093V39.3516C125.38 39.3516 126.419 39.1504 127.284 38.6369C128.159 38.1177 128.799 37.3129 129.236 36.2129L128.174 35.7915ZM135.774 16.6313L128.174 35.7916L129.236 36.2128L136.836 17.0525L135.774 16.6313ZM132.122 17.4131H136.305V16.2708H132.122V17.4131ZM125.787 34.3923L132.653 17.0522L131.591 16.6317L124.725 33.9717L125.787 34.3923ZM124.202 35.4876C124.544 35.4876 124.874 35.4115 125.164 35.2093C125.449 35.0105 125.641 34.7274 125.779 34.4109L124.733 33.9531C124.648 34.1475 124.569 34.2317 124.51 34.2724C124.457 34.3096 124.372 34.3453 124.202 34.3453V35.4876ZM122.614 34.3825C122.741 34.7213 122.94 35.0121 123.234 35.2127C123.527 35.4127 123.863 35.4876 124.202 35.4876V34.3453C124.03 34.3453 123.935 34.3084 123.877 34.2689C123.82 34.2301 123.748 34.1536 123.683 33.9814L122.614 34.3825ZM116.068 17.0437L122.614 34.3837L123.683 33.9802L117.136 16.6402L116.068 17.0437ZM112.451 17.4131H116.602V16.2708H112.451V17.4131ZM166.782 20.3356L164.716 16.5674L163.715 17.1164L165.78 20.8846L166.782 20.3356ZM176.031 20.0389H166.281V21.1813H176.031V20.0389ZM179.604 23.4522C179.604 22.5742 179.338 21.7114 178.725 21.0638C178.106 20.4096 177.194 20.0389 176.031 20.0389V21.1813C176.944 21.1813 177.532 21.4653 177.895 21.8489C178.265 22.2392 178.462 22.7974 178.462 23.4522H179.604ZM176.031 27.0252C177.242 27.0252 178.16 26.6032 178.766 25.9014C179.361 25.2136 179.604 24.3183 179.604 23.4522H178.462C178.462 24.1189 178.274 24.7246 177.902 25.1544C177.543 25.5703 176.959 25.8828 176.031 25.8828V27.0252ZM174.424 27.0441C174.987 27.034 175.485 27.0252 176.031 27.0252V25.8828C175.473 25.8828 174.965 25.8919 174.403 25.9019L174.424 27.0441ZM171.781 27.0712C172.903 27.0712 173.712 27.0567 174.424 27.0441L174.403 25.9019C173.693 25.9146 172.892 25.9288 171.781 25.9288V27.0712ZM179.583 38.0981L172.267 26.2008L171.294 26.7992L178.61 38.6964L179.583 38.0981ZM183.28 37.8261H179.097V38.9684H183.28V37.8261ZM177.773 30.0622L182.786 38.6844L183.774 38.1101L178.76 29.488L177.773 30.0622ZM182.262 23.2926C182.262 25.81 181.077 28.3904 178.112 29.2253L178.421 30.3249C182.034 29.3076 183.404 26.14 183.404 23.2926H182.262ZM175.903 17.4131C178.208 17.4131 179.779 18.1222 180.775 19.1679C181.777 20.2199 182.262 21.6791 182.262 23.2926H183.404C183.404 21.4571 182.851 19.691 181.602 18.3799C180.347 17.0625 178.452 16.2708 175.903 16.2708V17.4131ZM164.215 17.4131H175.903V16.2708H164.215V17.4131ZM186.748 16.8419V20.6101H187.891V16.8419H186.748ZM201.466 16.2708H187.32V17.4131H201.466V16.2708ZM207.275 21.5681C207.275 19.9525 206.79 18.6003 205.764 17.6586C204.747 16.724 203.279 16.2708 201.466 16.2708V17.4131C203.102 17.4131 204.253 17.8221 204.992 18.5001C205.723 19.1711 206.132 20.182 206.132 21.5681H207.275ZM203.48 27.1383C204.7 26.6131 205.66 25.9074 206.311 24.9669C206.964 24.0232 207.275 22.8899 207.275 21.5681H206.132C206.132 22.7053 205.868 23.5998 205.372 24.3166C204.873 25.0366 204.108 25.6243 203.029 26.0891L203.48 27.1383ZM191.727 32.1526L203.479 27.139L203.03 26.0883L191.279 31.1019L191.727 32.1526ZM190.988 33.224C190.988 32.7376 191.249 32.3576 191.728 32.1523L191.278 31.1023C190.416 31.4717 189.846 32.2414 189.846 33.224H190.988ZM192.014 34.0579C191.588 34.0579 191.342 33.9428 191.208 33.8187C191.079 33.6988 190.988 33.5112 190.988 33.224H189.846C189.846 33.767 190.027 34.282 190.432 34.6571C190.833 35.0279 191.386 35.2002 192.014 35.2002V34.0579ZM206.224 34.0579H192.014V35.2002H206.224V34.0579ZM206.796 38.3972V34.6291H205.653V38.3972H206.796ZM191.758 38.9684H206.224V37.8261H191.758V38.9684ZM185.982 33.671C185.982 35.2838 186.457 36.636 187.474 37.5788C188.485 38.5151 189.946 38.9684 191.758 38.9684V37.8261C190.122 37.8261 188.981 37.4171 188.251 36.7409C187.528 36.071 187.124 35.0601 187.124 33.671H185.982ZM189.811 28.0998C188.575 28.6244 187.607 29.3297 186.951 30.2708C186.292 31.2152 185.982 32.3493 185.982 33.671H187.124C187.124 32.5339 187.389 31.6402 187.888 30.9241C188.389 30.2046 189.161 29.6166 190.257 29.1512L189.811 28.0998ZM201.497 23.087L189.809 28.1006L190.259 29.1504L201.947 24.1368L201.497 23.087ZM202.268 22.0152C202.268 22.4966 202.014 22.8754 201.505 23.0832L201.938 24.1405C202.835 23.7736 203.411 23.0027 203.411 22.0152H202.268ZM201.211 21.1813C201.657 21.1813 201.911 21.2986 202.047 21.4234C202.178 21.5426 202.268 21.7284 202.268 22.0152H203.411C203.411 21.4718 203.229 20.955 202.817 20.5792C202.411 20.209 201.85 20.0389 201.211 20.0389V21.1813ZM187.32 21.1813H201.211V20.0389H187.32V21.1813ZM212.613 31.5315V16.8419H211.47V31.5315H212.613ZM219.003 37.8261C216.794 37.8261 215.221 37.2666 214.199 36.2582C213.178 35.2511 212.613 33.7047 212.613 31.5315H211.47C211.47 33.8929 212.087 35.7793 213.397 37.0715C214.706 38.3623 216.614 38.9684 219.003 38.9684V37.8261ZM223.538 37.8261H219.003V38.9684H223.538V37.8261ZM229.96 31.5315C229.96 33.7027 229.388 35.2491 228.359 36.2568C227.328 37.2666 225.747 37.8261 223.538 37.8261V38.9684C225.927 38.9684 227.842 38.3623 229.159 37.0729C230.477 35.7814 231.102 33.8949 231.102 31.5315H229.96ZM229.96 16.8419V31.5315H231.102V16.8419H229.96ZM226.827 17.4131H230.531V16.2708H226.827V17.4131ZM227.398 31.2441V16.8419H226.256V31.2441H227.398ZM223.282 35.2002C224.588 35.2002 225.642 34.8646 226.367 34.1442C227.093 33.4233 227.398 32.4081 227.398 31.2441H226.256C226.256 32.2196 226.002 32.897 225.562 33.3336C225.122 33.7709 224.404 34.0579 223.282 34.0579V35.2002ZM219.45 35.2002H223.282V34.0579H219.45V35.2002ZM215.303 31.2441C215.303 32.404 215.597 33.4212 216.325 34.1442C217.053 34.8665 218.117 35.2002 219.45 35.2002V34.0579C218.293 34.0579 217.569 33.7689 217.13 33.3336C216.693 32.899 216.445 32.2237 216.445 31.2441H215.303ZM215.303 16.8419V31.2441H216.445V16.8419H215.303ZM212.042 17.4131H215.874V16.2708H212.042V17.4131ZM241.945 16.2708C239.448 16.2708 237.604 16.9551 236.388 18.1989C235.174 19.4397 234.668 21.1519 234.668 23.0371H235.81C235.81 21.3457 236.262 19.9603 237.204 18.9977C238.143 18.038 239.652 17.4131 241.945 17.4131V16.2708ZM252.867 16.2708H241.945V17.4131H252.867V16.2708ZM253.438 20.6101V16.8419H252.295V20.6101H253.438ZM241.817 21.1813H252.867V20.0389H241.817V21.1813ZM239.578 23.1648C239.578 22.5217 239.761 22.0473 240.082 21.732C240.404 21.4162 240.944 21.1813 241.817 21.1813V20.0389C240.743 20.0389 239.878 20.3309 239.282 20.9172C238.684 21.5041 238.436 22.307 238.436 23.1648H239.578ZM242.201 25.1484C241.026 25.1484 240.396 24.8585 240.058 24.5259C239.722 24.195 239.578 23.7281 239.578 23.1648H238.436C238.436 23.9108 238.628 24.7213 239.257 25.3404C239.885 25.9579 240.853 26.2907 242.201 26.2907V25.1484ZM247.246 25.1484H242.201V26.2907H247.246V25.1484ZM255.066 32.0744C255.066 30.4531 254.708 28.7019 253.499 27.354C252.28 25.9943 250.288 25.1484 247.246 25.1484V26.2907C250.08 26.2907 251.713 27.0734 252.649 28.1167C253.595 29.1718 253.924 30.598 253.924 32.0744H255.066ZM247.629 38.9684C250.19 38.9684 252.074 38.2683 253.315 37.0005C254.553 35.7356 255.066 33.9913 255.066 32.0744H253.924C253.924 33.7979 253.464 35.215 252.498 36.2015C251.536 37.185 249.987 37.8261 247.629 37.8261V38.9684ZM235.622 38.9684H247.629V37.8261H235.622V38.9684ZM235.051 34.6291V38.3972H236.193V34.6291H235.051ZM247.757 34.0579H235.622V35.2002H247.757V34.0579ZM250.156 31.9466C250.156 32.6174 249.959 33.1246 249.61 33.4657C249.259 33.8078 248.677 34.0579 247.757 34.0579V35.2002C248.881 35.2002 249.784 34.8915 250.407 34.2835C251.031 33.6747 251.298 32.8406 251.298 31.9466H250.156ZM247.342 29.8353C248.584 29.8353 249.263 30.135 249.633 30.4903C249.998 30.8416 250.156 31.3386 250.156 31.9466H251.298C251.298 31.1496 251.089 30.3053 250.424 29.6667C249.764 29.0321 248.75 28.693 247.342 28.693V29.8353ZM242.328 29.8353H247.342V28.693H242.328V29.8353ZM234.668 23.0371C234.668 24.6111 235.018 26.3292 236.202 27.6565C237.397 28.9962 239.348 29.8353 242.328 29.8353V28.693C239.561 28.693 237.967 27.9195 237.054 26.8961C236.131 25.8603 235.81 24.4648 235.81 23.0371H234.668ZM142.49 38.969H147.523V37.8267H142.49V38.969ZM140.035 36.5138C140.035 37.8698 141.134 38.969 142.49 38.969V37.8267C141.765 37.8267 141.178 37.2389 141.178 36.5138H140.035ZM142.49 34.0585C141.134 34.0585 140.035 35.1577 140.035 36.5138H141.178C141.178 35.7886 141.765 35.2008 142.49 35.2008V34.0585ZM158.617 34.0585H142.49V35.2008H158.617V34.0585ZM159.188 38.3978V34.6297H158.046V38.3978H159.188ZM151.701 38.969H158.617V37.8267H151.701V38.969ZM147.523 38.969H151.701V37.8267H147.523V38.969ZM147.523 28.9321H142.49V30.0744H147.523V28.9321ZM151.701 28.9321H147.523V30.0744H151.701V28.9321ZM158.617 28.9321H151.701V30.0744H158.617V28.9321ZM158.046 25.7351V29.5032H159.188V25.7351H158.046ZM142.49 26.3062H158.617V25.1639H142.49V26.3062ZM141.178 27.6191C141.178 26.894 141.765 26.3062 142.49 26.3062V25.1639C141.134 25.1639 140.035 26.2631 140.035 27.6191H141.178ZM142.49 28.9321C141.765 28.9321 141.178 28.3443 141.178 27.6191H140.035C140.035 28.9752 141.134 30.0744 142.49 30.0744V28.9321Z" fill="#FB37FF"/>
<g filter="url(#filter1_f_2449_60602)">
<path fill-rule="evenodd" clip-rule="evenodd" d="M13.2618 20.9099C13.5021 20.3262 13.9142 19.9142 14.5322 19.9142C15.2189 19.9142 15.7339 20.4292 15.7339 21.2532V34.9185C15.7339 37.9742 17.4506 40 20.8498 40C23.9399 40 25.4506 38.3519 26.3434 35.7082L31.9743 20.9099C32.1803 20.3262 32.6609 19.9142 33.2446 19.9142C33.9313 19.9142 34.412 20.4292 34.412 21.2532V39.588H38.4979V21.0472C38.4979 18.0258 36.7811 16 33.3476 16C30.2575 16 28.7811 17.6481 27.8884 20.2918L22.2575 35.0901C22.0515 35.6738 21.5708 36.0515 20.9528 36.0515C20.2661 36.0515 19.7854 35.5365 19.7854 34.7468V21.0472C19.7854 18.0258 18.0687 16 14.6352 16C11.5451 16 10.0687 17.6481 9.17597 20.2918L2 39.588H6.32618L13.2618 20.9099ZM67.8007 16.412V20.4635H74.5647V39.588H78.6505V20.4635H85.4144V16.412H67.8007ZM97.4759 20.1545C96.9265 20.1545 96.5488 20.3949 96.3085 20.9442L88.9608 39.588H84.4973L92.6347 18.9871C93.493 16.824 95.0724 16 97.5102 16C99.9136 16 101.493 16.824 102.317 18.9871L110.145 39.588H105.648L98.6089 20.9442C98.4029 20.3949 98.0252 20.1545 97.4759 20.1545ZM45.7806 20.4634H51.1913H55.6834H63.1198V16.4119H45.7806C44.6618 16.4119 43.7549 17.3188 43.7549 18.4376C43.7549 19.5564 44.6618 20.4634 45.7806 20.4634ZM51.1913 39.589H45.7806C44.6618 39.589 43.7549 38.682 43.7549 37.5632C43.7549 36.4444 44.6618 35.5375 45.7806 35.5375H63.1198V39.589H55.6834H51.1913ZM45.7806 30.0259H51.1913H55.6834H63.1198V25.9744H45.7806C44.6618 25.9744 43.7549 26.8813 43.7549 28.0001C43.7549 29.1189 44.6618 30.0259 45.7806 30.0259Z" fill="#DC07E0"/>
</g>
<g filter="url(#filter2_f_2449_60602)">
<path fill-rule="evenodd" clip-rule="evenodd" d="M16.6079 20.9099C16.8483 20.3262 17.2603 19.9142 17.8783 19.9142C18.565 19.9142 19.08 20.4292 19.08 21.2532V34.9185C19.08 37.9742 20.7968 40 24.1959 40C27.286 40 28.7968 38.3519 29.6895 35.7082L35.3204 20.9099C35.5264 20.3262 36.0071 19.9142 36.5908 19.9142C37.2775 19.9142 37.7581 20.4292 37.7581 21.2532V39.588H41.844V21.0472C41.844 18.0258 40.1273 16 36.6938 16C33.6036 16 32.1272 17.6481 31.2345 20.2918L25.6036 35.0901C25.3976 35.6738 24.9169 36.0515 24.2989 36.0515C23.6122 36.0515 23.1315 35.5365 23.1315 34.7468V21.0472C23.1315 18.0258 21.4148 16 17.9813 16C14.8912 16 13.4148 17.6481 12.5221 20.2918L5.34613 39.588H9.67231L16.6079 20.9099ZM71.1468 16.412V20.4635H77.9108V39.588H81.9966V20.4635H88.7606V16.412H71.1468ZM100.822 20.1545C100.273 20.1545 99.895 20.3949 99.6546 20.9442L92.307 39.588H87.8435L95.9808 18.9871C96.8392 16.824 98.4186 16 100.856 16C103.26 16 104.839 16.824 105.663 18.9871L113.492 39.588H108.994L101.955 20.9442C101.749 20.3949 101.371 20.1545 100.822 20.1545ZM49.1269 20.4634H54.5375H59.0296H66.466V16.4119H49.1269C48.0081 16.4119 47.1011 17.3188 47.1011 18.4376C47.1011 19.5564 48.0081 20.4634 49.1269 20.4634ZM54.5375 39.589H49.1269C48.0081 39.589 47.1011 38.682 47.1011 37.5632C47.1011 36.4445 48.0081 35.5375 49.1269 35.5375H66.466V39.589H59.0296H54.5375ZM49.1269 30.0258H54.5375H59.0296H66.466V25.9743H49.1269C48.0081 25.9743 47.1011 26.8813 47.1011 28.0001C47.1011 29.1189 48.0081 30.0258 49.1269 30.0258Z" fill="#00E1E2"/>
</g>
<path fill-rule="evenodd" clip-rule="evenodd" d="M14.9351 20.9099C15.1754 20.3262 15.5874 19.9142 16.2055 19.9142C16.8922 19.9142 17.4072 20.4292 17.4072 21.2532V34.9185C17.4072 37.9742 19.1239 40 22.5231 40C25.6132 40 27.1239 38.3519 28.0166 35.7082L33.6475 20.9099C33.8535 20.3262 34.3342 19.9142 34.9179 19.9142C35.6046 19.9142 36.0853 20.4292 36.0853 21.2532V39.588H40.1711V21.0472C40.1711 18.0258 38.4544 16 35.0209 16C31.9308 16 30.4544 17.6481 29.5617 20.2918L23.9308 35.0901C23.7248 35.6738 23.2441 36.0515 22.6261 36.0515C21.9394 36.0515 21.4587 35.5365 21.4587 34.7468V21.0472C21.4587 18.0258 19.742 16 16.3085 16C13.2183 16 11.7419 17.6481 10.8492 20.2918L3.67328 39.588H7.99946L14.9351 20.9099ZM69.474 16.412V20.4635H76.2379V39.588H80.3238V20.4635H87.0877V16.412H69.474ZM99.1491 20.1545C98.5998 20.1545 98.2221 20.3949 97.9818 20.9442L90.6341 39.588H86.1706L94.3079 18.9871C95.1663 16.824 96.7457 16 99.1835 16C101.587 16 103.166 16.824 103.99 18.9871L111.819 39.588H107.321L100.282 20.9442C100.076 20.3949 99.6985 20.1545 99.1491 20.1545ZM47.4539 20.4634H52.8646H57.3566H64.7931V16.4119H47.4539C46.3351 16.4119 45.4282 17.3188 45.4282 18.4376C45.4282 19.5564 46.3351 20.4634 47.4539 20.4634ZM52.8646 39.589H47.4539C46.3351 39.589 45.4282 38.682 45.4282 37.5632C45.4282 36.4444 46.3351 35.5375 47.4539 35.5375H64.7931V39.589H57.3566H52.8646ZM50.4539 30.0259H55.8646H57.3566H64.7931V25.9744H50.4539C49.3351 25.9744 48.4282 26.8813 48.4282 28.0001C48.4282 29.1189 49.3351 30.0259 50.4539 30.0259Z" fill="white"/>
<defs>
<filter id="filter0_f_2449_60602" x="96.1838" y="0.947038" width="174.206" height="53.7278" filterUnits="userSpaceOnUse" color-interpolation-filters="sRGB">
<feFlood flood-opacity="0" result="BackgroundImageFix"/>
<feBlend mode="normal" in="SourceGraphic" in2="BackgroundImageFix" result="shape"/>
<feGaussianBlur stdDeviation="7.52892" result="effect1_foregroundBlur_2449_60602"/>
</filter>
<filter id="filter1_f_2449_60602" x="0.74518" y="14.7452" width="110.655" height="26.5096" filterUnits="userSpaceOnUse" color-interpolation-filters="sRGB">
<feFlood flood-opacity="0" result="BackgroundImageFix"/>
<feBlend mode="normal" in="SourceGraphic" in2="BackgroundImageFix" result="shape"/>
<feGaussianBlur stdDeviation="0.62741" result="effect1_foregroundBlur_2449_60602"/>
</filter>
<filter id="filter2_f_2449_60602" x="4.09131" y="14.7452" width="110.655" height="26.5096" filterUnits="userSpaceOnUse" color-interpolation-filters="sRGB">
<feFlood flood-opacity="0" result="BackgroundImageFix"/>
<feBlend mode="normal" in="SourceGraphic" in2="BackgroundImageFix" result="shape"/>
<feGaussianBlur stdDeviation="0.62741" result="effect1_foregroundBlur_2449_60602"/>
</filter>
</defs>
</svg>
