<svg width="32" height="32" viewBox="0 0 32 32" fill="none" xmlns="http://www.w3.org/2000/svg">
<path d="M21.9077 25.3333L21.1368 25.9703C21.334 26.2089 21.6304 26.3427 21.9398 26.3328C24.5083 26.2504 26.5357 25.355 27.9145 24.4869C28.6043 24.0526 29.1369 23.622 29.5009 23.2959C29.6831 23.1326 29.8239 22.9948 29.9217 22.8948C29.9707 22.8448 30.009 22.8041 30.0364 22.7743C30.0502 22.7595 30.0612 22.7473 30.0695 22.7381L30.0799 22.7264L30.0836 22.7222L30.085 22.7206L30.0857 22.7199C30.086 22.7195 30.0862 22.7192 29.3334 22.061L30.0862 22.7192C30.2456 22.537 30.3334 22.3031 30.3334 22.061C30.3334 18.482 29.6499 14.7785 28.9773 11.9932C28.6398 10.5953 28.3022 9.41735 28.0485 8.5873C27.9216 8.17209 27.8155 7.84342 27.7407 7.61723C27.7032 7.50413 27.6736 7.41661 27.6531 7.35667L27.6294 7.28767L27.6229 7.26915L27.6211 7.26396L27.6205 7.26239L27.6203 7.26187C27.6203 7.26167 27.6202 7.26151 26.6771 7.594L27.6202 7.26151C27.5553 7.07721 27.4377 6.91599 27.2821 6.79777C25.5931 5.51443 23.7128 4.90481 22.2829 4.61215C21.5636 4.46492 20.9456 4.39533 20.5037 4.36248C20.2824 4.34603 20.1042 4.33872 19.9784 4.33557C19.9155 4.334 19.8655 4.33346 19.8297 4.33334L19.7868 4.3334L19.7735 4.33353L19.7689 4.33358L19.7672 4.33361L19.7665 4.33362C19.7661 4.33363 19.7658 4.33363 19.7826 5.33349L19.7658 4.33363C19.3339 4.34091 18.9555 4.62464 18.8276 5.03717L18.1339 7.27285C18.1202 7.27121 18.1065 7.26959 18.0929 7.26799L18.0929 7.26797L18.0882 7.26745C16.5705 7.09662 15.1138 7.1261 13.8077 7.28083C13.7906 7.20737 13.7651 7.13544 13.7312 7.06648L12.6623 4.8923C12.4968 4.55565 12.1568 4.33995 11.7818 4.33363L11.7649 5.33349C11.7818 4.33363 11.7814 4.33363 11.7811 4.33362L11.7804 4.33361L11.7786 4.33358L11.7741 4.33353L11.7608 4.3334L11.7178 4.33334C11.682 4.33346 11.6321 4.334 11.5691 4.33557C11.4433 4.33872 11.2651 4.34603 11.0438 4.36248C10.6019 4.39533 9.98401 4.46492 9.26469 4.61215C7.83479 4.90481 5.95446 5.51443 4.26545 6.79776C4.09507 6.92722 3.97071 7.10791 3.91065 7.31329L4.87044 7.594C3.91065 7.31329 3.9106 7.31343 3.91055 7.3136L3.91041 7.3141L3.90997 7.3156L3.9085 7.32065L3.90322 7.3389L3.88367 7.40732C3.86677 7.46687 3.84232 7.55397 3.8114 7.66665C3.74957 7.89197 3.66181 8.21967 3.55679 8.63382C3.34683 9.46179 3.06742 10.637 2.78807 12.0315C2.23109 14.812 1.66675 18.5013 1.66675 22.061C1.66675 22.3018 1.75361 22.5344 1.91139 22.7163L2.66675 22.061C1.91139 22.7163 1.91167 22.7166 1.91195 22.717L1.91258 22.7177L1.91403 22.7194L1.9177 22.7235L1.92808 22.7353C1.93635 22.7445 1.94733 22.7567 1.96099 22.7716C1.98831 22.8015 2.0264 22.8422 2.07509 22.8923C2.17242 22.9925 2.31242 23.1304 2.49373 23.2939C2.85586 23.6203 3.386 24.0512 4.07347 24.4859C5.44776 25.3548 7.47036 26.2504 10.0392 26.3328C10.3516 26.3428 10.6507 26.2062 10.8477 25.9635L10.0712 25.3333L10.8477 25.9635L10.8478 25.9634L10.8479 25.9633L10.8484 25.9627L10.8501 25.9605L10.857 25.952L10.8834 25.9194L10.982 25.7975C11.0663 25.6931 11.1852 25.5456 11.3242 25.3723C11.6016 25.0264 11.9609 24.5755 12.2838 24.1611C12.319 24.116 12.3499 24.0683 12.3765 24.0187C12.6204 24.0776 12.8718 24.1328 13.1307 24.1834L13.1307 24.1834L13.1368 24.1846C14.8264 24.5041 16.8221 24.6209 19.0046 24.2075C19.2143 24.1712 19.4245 24.1297 19.6354 24.0829C19.6592 24.1249 19.6862 24.1655 19.7164 24.2042C20.041 24.6208 20.3964 25.0625 20.6692 25.3985C20.8059 25.5669 20.9225 25.7095 21.0051 25.8101L21.1017 25.9277L21.1276 25.9591L21.1344 25.9673L21.1362 25.9695L21.1366 25.9701L21.1368 25.9702L21.1368 25.9703L21.9077 25.3333ZM13.1939 17.6529L13.1938 17.6691C13.1938 18.5305 12.59 19.0588 12.0262 19.0588C11.4778 19.0588 10.8587 18.5238 10.8587 17.6691C10.8587 16.8078 11.4626 16.2795 12.0262 16.2795C12.6036 16.2795 13.2074 16.8199 13.1939 17.6529ZM18.6151 17.6691C18.6151 16.8079 19.2189 16.2795 19.7826 16.2795C20.3464 16.2795 20.9502 16.8079 20.9502 17.6691C20.9502 18.5305 20.3464 19.0588 19.7826 19.0588C19.2342 19.0588 18.6151 18.5238 18.6151 17.6691Z" stroke="#FB37FF" stroke-width="2" stroke-linejoin="round"/>
</svg>
