<svg width="32" height="32" viewBox="0 0 32 32" fill="none" xmlns="http://www.w3.org/2000/svg">
<path d="M22.2819 27.3055H9.71741C6.94297 27.3055 4.69409 25.0566 4.69409 22.2821V9.71767C4.69409 6.94323 6.94297 4.69434 9.71741 4.69434H22.2819C25.0563 4.69434 27.3052 6.94323 27.3052 9.71767V22.2821C27.3052 25.0566 25.0563 27.3055 22.2819 27.3055Z" stroke="#FB37FF" stroke-width="2" stroke-linejoin="round"/>
<path d="M16.0001 20.3634C18.4099 20.3634 20.3634 18.4099 20.3634 16.0001C20.3634 13.5902 18.4099 11.6367 16.0001 11.6367C13.5902 11.6367 11.6367 13.5902 11.6367 16.0001C11.6367 18.4099 13.5902 20.3634 16.0001 20.3634Z" stroke="#FB37FF" stroke-width="2" stroke-linejoin="round"/>
<path d="M22.3685 11.1621C23.1048 11.1621 23.7018 10.5651 23.7018 9.82876C23.7018 9.09238 23.1048 8.49542 22.3685 8.49542C21.632 8.49542 21.0352 9.09238 21.0352 9.82876C21.0352 10.5651 21.632 11.1621 22.3685 11.1621Z" fill="#FB37FF"/>
</svg>
