<svg width="32" height="32" viewBox="0 0 32 32" fill="none" xmlns="http://www.w3.org/2000/svg">
<path d="M29.2301 7.63973C29.4016 7.32995 29.3564 6.94095 29.1188 6.68179C28.8813 6.42263 28.5074 6.35453 28.1983 6.51406C28.1508 6.53856 28.1035 6.56209 28.0559 6.58475C28.2575 6.2005 28.416 5.78203 28.5256 5.32967C28.6043 5.00521 28.4814 4.66424 28.2165 4.47157C27.9517 4.27891 27.5993 4.27427 27.3297 4.45981C26.6047 4.95858 25.7538 5.24915 24.6888 5.53583C23.6249 4.60067 22.1739 4 20.706 4C17.5907 4 14.9021 6.80721 14.9021 10.1524C14.9021 10.1753 14.9021 10.1984 14.902 10.2217C14.9019 10.2809 14.9018 10.3416 14.9023 10.4034C11.2727 9.99274 7.965 8.08259 5.78912 5.27527C5.6286 5.06825 5.38023 4.95545 5.12402 4.97326C4.86782 4.99107 4.63618 5.13722 4.5041 5.36442C3.93647 6.34082 3.76486 7.30998 3.76486 8.53333C3.76486 9.58431 4.04471 10.5787 4.52836 11.4479C4.38081 11.4519 4.23524 11.4989 4.10944 11.5867C3.89391 11.7374 3.76486 11.9885 3.76486 12.2571C3.76486 14.0966 4.52439 15.7289 5.74551 16.8406C5.52235 17.051 5.43565 17.3762 5.52507 17.6762C6.05212 19.4443 7.35199 20.9212 9.07496 21.5889C7.80061 22.2564 6.33113 22.619 4.70604 22.619H4.70332H4.7005H4.69778H4.69506H4.69234H4.68951H4.6868H4.68408H4.68136H4.67864H4.67592H4.6732H4.67048H4.66776H4.66504H4.66232H4.65971H4.65699H4.65427H4.65155H4.64894H4.64622H4.6435H4.64089H4.63817H4.63555H4.63283H4.63022H4.6275H4.62489H4.62217H4.61955H4.61694H4.61422H4.61161H4.60899H4.60638H4.60376H4.60104H4.59843H4.59582H4.5932H4.59059H4.58797H4.58536H4.58274H4.58013H4.57752H4.575H4.57239H4.56978H4.56716H4.56455H4.56204H4.55942H4.55681H4.5543H4.55169H4.54917H4.54656H4.54395H4.54144H4.53882H4.53631H4.5338H4.53119H4.52868H4.52606H4.52355H4.52104H4.51843H4.51592H4.51341H4.5109H4.50839H4.50578H4.50327H4.50076H4.49825H4.49574H4.49323H4.49072H4.48821H4.4857H4.48319H4.48068H4.47817H4.47566H4.47325H4.47074H4.46824H4.46572H4.46321H4.46081H4.4583H4.45579H4.45328H4.45087H4.44837H4.44596H4.44345H4.44094H4.43854H4.43602H4.43362H4.43111H4.4287H4.4262H4.42379H4.42138H4.41887H4.41647H4.41396H4.41155H4.40915H4.40674H4.40423H4.40183H4.39942H4.39702H4.39451H4.3921H4.3897H4.38729H4.38489H4.38248H4.37997H4.37757H4.37516H4.37276H4.37035H4.36795H4.36554H4.36314H4.36073H4.35833H4.35592H4.35352H4.35122H4.34881H4.34641H4.344H4.34159H4.33919H4.33689H4.33448H4.33208H4.32967H4.32727H4.32497H4.32256H4.32016H4.31786H4.31545H4.31305H4.31075H4.30834H4.30593H4.30363H4.30123H4.29893H4.29652H4.29412H4.29182H4.28941H4.28711H4.28471H4.28241H4.28H4.2777H4.27529H4.27299H4.27069H4.26829H4.26599H4.26358H4.26128H4.25888H4.25658H4.25427H4.25187H4.24957H4.24727H4.24486H4.24256H4.24026H4.23786H4.23555H4.23326H4.23096H4.22855H4.22625H4.22395H4.22165H4.21924H4.21694H4.21464H4.21234H4.21004H4.20763H4.20533H4.20303H4.20073H4.19843H4.19613H4.19373H4.19142H4.18912H4.18682H4.18452H4.18222H4.17992H4.17762H4.17532H4.17292H4.17061H4.16831H4.16601H4.16371H4.16141H4.15911H4.15681H4.15451H4.15221H4.14991H4.14761H4.14531H4.14301H4.14071H4.13841H4.13611H4.1338H4.1315H4.1292H4.1269H4.1246H4.1223H4.12H4.1177H4.1154H4.1131H4.1108H4.1085H4.1062H4.1039H4.1016H4.0993H4.09699H4.09469H4.09239H4.09009H4.08779H4.08549H4.08319H4.08089H4.07859H4.07629H4.07399H4.07169H4.06939H4.06709H4.06478H4.06249H4.06018H4.05788H4.05558H4.05328H4.05098H4.04868H4.04638H4.04408H4.04178H4.03948H4.03718H4.03488H4.03258H4.03028H4.02797H4.02567H4.02337H4.02107H4.01877H4.01647H4.01417H4.01187H4.00957H4.00727H4.00497H4.00267H4.00037H3.99807H3.99577H3.99347H3.99116H3.98886H3.98656H3.98426H3.98186H3.97956H3.97726H3.97496H3.97265H3.97035H3.96805H3.96575H3.96345H3.96105H3.95875H3.95645H3.95415H3.95184H3.94954H3.94714H3.94484H3.94254H3.94024H3.93794H3.93553H3.93323H3.93093H3.92863H3.92622H3.92392H3.92162H3.91932H3.91692H3.91462H3.91232H3.90991H3.90761H3.90531H3.9029H3.9006H3.8983H3.8959H3.8936H3.89119H3.88889H3.88649H3.88419H3.88188H3.87948H3.87718H3.87477H3.87247H3.87007H3.86777H3.86536H3.86306H3.86066H3.85825H3.85595H3.85354H3.85124H3.84884H3.84643H3.84413H3.84173H3.83932H3.83702H3.83462H3.83221H3.82991H3.8275H3.8251H3.8227H3.82029H3.81799H3.81558H3.81318H3.81077H3.80837H3.80596H3.80366H3.80126H3.79885H3.79645H3.79404H3.79164H3.78923H3.78683H3.78442H3.78202H3.77961H3.77721H3.7747H3.77229H3.76988H3.76748H3.76507H3.76267H3.76016H3.75775H3.75535H3.75294H3.75043H3.74803H3.74562H3.74322H3.74071H3.7383H3.73579H3.73339H3.73098H3.72847H3.72607H3.72356H3.72115H3.71864H3.71624H3.71373H3.71122H3.70881H3.7063H3.7039H3.70139H3.69888H3.69637H3.69396H3.69145H3.68894H3.68643H3.68393H3.68152H3.67901H3.6765H3.67399H3.67148H3.66897H3.66646H3.66395H3.66144H3.65893H3.65642H3.65391H3.6514H3.64879H3.64628H3.64377H3.64126H3.63875H3.63613H3.63362H3.63111H3.6285H3.62599H3.62338H3.62087H3.61836H3.61574H3.61323H3.61062H3.608H3.60549H3.60288H3.60037H3.59775H3.59514H3.59263H3.59002H3.5874H3.58479H3.58217H3.57966H3.57705H3.57444H3.57182H3.56921H3.56659H3.56398H3.56136H3.55875H3.55614H3.55341H3.5508H3.54819H3.54557H3.54296H3.54024H3.53763H3.53501H3.53229H3.52968H3.52696H3.52434H3.52162H3.51901H3.51629H3.51368H3.51096H3.50824H3.50562H3.50291H3.50019H3.49747H3.49485H3.49213H3.48942H3.4867H3.48398H3.48126H3.47854H3.47582H3.4731H3.47038H3.46766H3.46484H3.46212H3.4594H3.45668H3.45386H3.45114C3.09862 22.619 2.78939 22.8618 2.69528 23.2125C2.60116 23.5632 2.74537 23.9355 3.04759 24.1227C5.48941 25.6349 8.29441 26.6667 11.2942 26.6667C21.2295 26.6667 26.6667 18.1097 26.6667 10.8V10.799V10.7981V10.7971V10.7962V10.7953V10.7943V10.7933V10.7923V10.7914V10.7903V10.7893V10.7883V10.7874V10.7864V10.7853V10.7843V10.7834V10.7823V10.7813V10.7804V10.7793V10.7783V10.7772V10.7761V10.7752V10.7741V10.7731V10.772V10.771V10.7699V10.7689V10.7678V10.7668V10.7657V10.7646V10.7635V10.7624V10.7614V10.7603V10.7592V10.7581V10.757V10.756V10.7549V10.7538V10.7527V10.7515V10.7505V10.7494V10.7482V10.7471V10.746V10.7448V10.7438V10.7426V10.7415V10.7403V10.7392V10.738V10.737V10.7358V10.7346V10.7335V10.7323V10.7311V10.7301V10.7289V10.7277V10.7265V10.7253V10.7241V10.723V10.7219V10.7207V10.7195V10.7183V10.7171V10.7159V10.7147V10.7134V10.7122V10.7111V10.7099V10.7087V10.7075V10.7062V10.705V10.7038V10.7026V10.7013V10.7002V10.699V10.6977V10.6965V10.6952V10.694V10.6927V10.6915V10.6902V10.689V10.6877V10.6866V10.6853V10.684V10.6828V10.6815V10.6802V10.679V10.6777V10.6764V10.6751V10.6739V10.6726V10.6713V10.67V10.6687V10.6675V10.6663V10.665V10.6637V10.6624V10.6611V10.6598V10.6585V10.6572V10.6559V10.6546V10.6533V10.652V10.6506V10.6493V10.648V10.6467V10.6454V10.6441V10.6427V10.6414V10.6401V10.6388V10.6374V10.6362V10.6349V10.6335V10.6322V10.6309V10.6295V10.6282V10.6269V10.6255V10.6242V10.6228V10.6215V10.6201V10.6188V10.6175V10.6161V10.6147V10.6134V10.612V10.6107V10.6093V10.608V10.6066V10.6052V10.6039V10.6025V10.6012V10.5998V10.5984V10.5971V10.5957V10.5943V10.5929V10.5916V10.5902V10.5888V10.5874V10.5861V10.5847V10.5833V10.5819V10.5806V10.5792V10.5778V10.5764V10.575V10.5735V10.5721V10.5709V10.5694V10.568V10.5666V10.5652V10.5638V10.5624V10.561V10.5608C27.6945 9.75129 28.5984 8.78062 29.2301 7.63973Z" stroke="#FB37FF" stroke-width="1.5" stroke-linejoin="round"/>
</svg>
